<?xml version="1.0" encoding="UTF-8"?>
<svg xmlns="http://www.w3.org/2000/svg" width="1024" height="1024" viewBox="0 0 1024 1024">
<path fill="#FFF4E6" fill-rule="evenodd" d="M801.95 393.32C872.58 396.74 915.1 436.74 915.1 500.37C915.1 567.29 868.86 607.65 791.94 607.65L771.93 607.65C726.78 703.39 633.72 760.13 513.21 760.13L482.16 760.13C309.33 760.13 193.41 637.67 193.41 463.45L193.41 393.43C193.41 311.33 316.22 255.44 497.68 255.44C679.05 255.44 801.84 311.26 801.95 393.32ZM497.68 477.6C642.22 477.6 748.49 441.02 748.49 393.43C748.49 346.16 642.22 309.26 497.68 309.26C353.48 309.26 247.23 346.16 247.23 393.43C247.23 441.02 353.48 477.6 497.68 477.6ZM791.04 554.17L791.94 554.17C835.77 554.17 861.28 533.83 861.28 500.37C861.28 469.21 839.61 449.79 801.95 446.91L801.95 463.45C801.95 495.87 798.19 526.2 791.04 554.17ZM454.68 640.55A76.23 76.23 0 1 0 322.65 640.55ZM669.27 640.55A76.23 76.23 0 1 0 537.24 640.55Z"/>
</svg>
